<svg width="43" height="22" viewBox="0 0 43 22" fill="none" xmlns="http://www.w3.org/2000/svg">
<path d="M2.12184 17.692C1.93428 17.3905 1.68421 16.9087 1.52975 16.552C0.628738 14.4631 0.588284 12.3007 1.34587 10.2265C2.18068 7.95006 3.77676 6.21056 5.83989 5.32058C8.43259 4.20627 11.2974 4.42325 13.7835 5.89797C15.3612 6.80265 16.4792 8.20014 17.3287 10.1787C17.4353 10.4324 17.531 10.7009 17.6266 10.9326L2.12184 17.692ZM7.2999 8.67823C5.45742 9.46891 4.5086 11.1974 4.70719 13.2201L12.5037 9.86241C11.1614 8.2884 9.41819 7.76618 7.2999 8.67823V8.67823ZM13.4746 15.9819C13.4709 15.9819 13.4709 15.9856 13.4709 15.9856L13.3091 15.8753C12.842 16.6292 12.1175 17.2434 11.2018 17.6405C9.45864 18.3981 7.84418 18.2032 6.68206 17.1845L6.57541 17.3463C6.57541 17.3463 6.57541 17.3426 6.57173 17.3426L4.59318 20.3031C5.08598 20.6451 5.61188 20.932 6.16352 21.1637C8.34801 22.072 10.584 22.0279 12.7869 21.0717C14.3793 20.3803 15.6296 19.3285 16.4829 17.9936L13.4746 15.9819ZM23.0437 0.966309V17.4199L25.6033 18.457L24.1506 21.8477L21.3262 20.6709C20.6937 20.395 20.2597 19.9758 19.9361 19.5014C19.6235 19.0196 19.3918 18.354 19.3918 17.464V0.966309H23.0437ZM29.6707 13.2311C29.6707 11.8299 30.2922 10.5722 31.2705 9.71899L28.6447 6.79162C26.8647 8.36563 25.743 10.6641 25.743 13.2237C25.7394 15.787 26.861 18.0892 28.6373 19.6632L31.2594 16.7358C30.2849 15.879 29.6707 14.6286 29.6707 13.2311V13.2311ZM34.3339 17.898C33.819 17.898 33.3189 17.8097 32.8555 17.6552L31.6014 21.3806C32.4583 21.6675 33.374 21.8256 34.3302 21.8256C38.4859 21.8293 41.9539 18.8799 42.7593 14.9632L38.9051 14.1762C38.4675 16.3056 36.5883 17.9016 34.3339 17.898V17.898ZM34.3449 4.63655C33.3924 4.63655 32.4767 4.79101 31.6198 5.07418L32.8629 8.80327C33.3299 8.64881 33.8264 8.56422 34.3413 8.56422C36.5993 8.5679 38.4822 10.1713 38.9088 12.3043L42.7629 11.5247C41.9723 7.60069 38.5043 4.64023 34.3449 4.63655V4.63655Z" fill="white"/>
</svg>
