<svg width="109" height="21" viewBox="0 0 109 21" fill="none" xmlns="http://www.w3.org/2000/svg">
<path d="M0.409091 15V3.36362H1.81818V9.13635H1.95455L7.18182 3.36362H9.02273L4.13636 8.61362L9.02273 15H7.31818L3.27273 9.59089L1.81818 11.2273V15H0.409091ZM11.3239 15H9.84659L14.1193 3.36362H15.5739L19.8466 15H18.3693L14.892 5.20453H14.8011L11.3239 15ZM11.8693 10.4545H17.8239V11.7045H11.8693V10.4545ZM21.6591 15V3.36362H25.7273C26.5379 3.36362 27.2064 3.50377 27.733 3.78408C28.2595 4.06059 28.6515 4.4337 28.9091 4.90339C29.1667 5.3693 29.2955 5.88635 29.2955 6.45453C29.2955 6.95453 29.2064 7.36741 29.0284 7.69317C28.8542 8.01892 28.6231 8.2765 28.3352 8.46589C28.0511 8.65529 27.7424 8.79544 27.4091 8.88635V8.99998C27.7652 9.02271 28.1231 9.14771 28.483 9.37498C28.8428 9.60226 29.1439 9.92801 29.3864 10.3523C29.6288 10.7765 29.75 11.2954 29.75 11.9091C29.75 12.4924 29.6174 13.017 29.3523 13.4829C29.0871 13.9488 28.6686 14.3182 28.0966 14.5909C27.5246 14.8636 26.7803 15 25.8636 15H21.6591ZM23.0682 13.75H25.8636C26.7841 13.75 27.4375 13.572 27.8239 13.2159C28.214 12.856 28.4091 12.4204 28.4091 11.9091C28.4091 11.5151 28.3087 11.1515 28.108 10.8182C27.9072 10.481 27.6212 10.2121 27.25 10.0113C26.8788 9.8068 26.4394 9.70453 25.9318 9.70453H23.0682V13.75ZM23.0682 8.47726H25.6818C26.1061 8.47726 26.4886 8.39392 26.8295 8.22726C27.1742 8.06059 27.447 7.82574 27.6477 7.52271C27.8523 7.21968 27.9545 6.86362 27.9545 6.45453C27.9545 5.94317 27.7765 5.50945 27.4205 5.15339C27.0644 4.79355 26.5 4.61362 25.7273 4.61362H23.0682V8.47726ZM32.0653 15V3.36362H39.0881V4.61362H33.4744V8.54544H38.7244V9.79544H33.4744V13.75H39.179V15H32.0653ZM41.6278 15V3.36362H43.0369V8.54544H49.2415V3.36362H50.6506V15H49.2415V9.79544H43.0369V15H41.6278Z" fill="#959595"/>
<path d="M53.0739 15V3.36362H57.6648C58.5473 3.36362 59.2992 3.53218 59.9205 3.8693C60.5417 4.20264 61.0152 4.66665 61.3409 5.26135C61.6705 5.85226 61.8352 6.53408 61.8352 7.3068C61.8352 8.07953 61.6686 8.76135 61.3352 9.35226C61.0019 9.94317 60.5189 10.4034 59.8864 10.7329C59.2576 11.0625 58.4962 11.2273 57.6023 11.2273H54.6761V9.25567H57.2045C57.678 9.25567 58.0682 9.17423 58.375 9.01135C58.6856 8.84468 58.9167 8.61551 59.0682 8.32385C59.2235 8.02839 59.3011 7.68938 59.3011 7.3068C59.3011 6.92044 59.2235 6.58332 59.0682 6.29544C58.9167 6.00377 58.6856 5.77839 58.375 5.6193C58.0644 5.45642 57.6705 5.37498 57.1932 5.37498H55.5341V15H53.0739ZM64.0952 15H61.4588L65.4759 3.36362H68.6463L72.6577 15H70.0213L67.1065 6.02271H67.0156L64.0952 15ZM63.9304 10.4261H70.1577V12.3466H63.9304V10.4261ZM72.1889 3.36362H74.9446L77.598 8.37498H77.7116L80.3651 3.36362H83.1207L78.8764 10.8863V15H76.4332V10.8863L72.1889 3.36362Z" fill="white"/>
<path fill-rule="evenodd" clip-rule="evenodd" d="M93.2028 13.8617L93.1995 13.8662L93.1963 13.8707C93.0183 14.1227 92.6196 14.1968 92.3077 13.9765C92.0581 13.8002 91.9831 13.4074 92.1957 13.097C92.5128 12.6927 92.7431 12.2201 92.8944 11.7581C93.0519 11.2771 93.1251 10.7305 93.1223 10.1944C93.1194 9.65838 93.0404 9.11262 92.8778 8.63333C92.7216 8.17295 92.4862 7.7028 92.1648 7.30194C91.9489 6.99377 92.0198 6.60017 92.2675 6.42122C92.577 6.19769 92.9765 6.26749 93.1571 6.51761L93.1604 6.5221L93.1637 6.5265C93.5638 7.05405 93.8919 7.64018 94.088 8.21523C94.2944 8.89171 94.4259 9.54608 94.4293 10.1875C94.4329 10.8624 94.3684 11.5013 94.1207 12.1302C93.851 12.8151 93.5898 13.34 93.2028 13.8617ZM96.0954 15.1145L96.1032 15.1034L96.1104 15.0919C96.9971 13.6713 97.5085 11.957 97.499 10.1711C97.4895 8.3857 96.9601 6.67737 96.0587 5.26646C95.8634 4.95669 95.9511 4.59045 96.2804 4.35261C96.5015 4.19288 96.9166 4.24944 97.1629 4.57952C98.1806 6.19416 98.7953 8.146 98.8061 10.1642C98.8172 12.2512 98.2238 14.1397 97.2224 15.7661C96.9908 16.085 96.6361 16.1743 96.3303 15.9936C95.9988 15.7507 95.9382 15.337 96.0954 15.1145ZM101.286 2.45724L101.295 2.47449L101.305 2.49097C102.684 4.73919 103.45 7.33243 103.465 10.1394C103.48 12.945 102.742 15.5451 101.388 17.8072C101.181 18.1409 100.83 18.235 100.475 18.0697C100.152 17.859 100.065 17.5098 100.234 17.1571C101.385 15.1125 102.101 12.703 102.088 10.1467C102.074 7.60176 101.408 5.19618 100.157 3.15136C99.9875 2.80221 100.071 2.45448 100.391 2.24137C100.776 2.05725 101.152 2.1922 101.286 2.45724ZM105.369 0.317663L105.375 0.329447L105.382 0.340883C107.053 3.22941 108.035 6.53184 108.054 10.1149C108.073 13.6943 107.128 17.0039 105.491 19.9079C105.283 20.2378 104.934 20.3302 104.581 20.1656C104.259 19.9556 104.171 19.608 104.338 19.2564C105.915 16.5648 106.764 13.4463 106.747 10.1219C106.729 6.78887 105.772 3.68251 104.243 1.0174C104.051 0.628355 104.186 0.247321 104.454 0.111831C104.846 -0.0870443 105.232 0.0479557 105.369 0.317663Z" fill="white"/>
</svg>
